static_grf.mot
version=1
nRows=12
nColumns 19
inDegrees=yes
endheader
time	1_ground_force_vx	1_ground_force_vy	1_ground_force_vz	1_ground_force_px	1_ground_force_py	1_ground_force_pz	1_ground_torque_x	1_ground_torque_y	1_ground_torque_z	2_ground_force_vx	2_ground_force_vy	2_ground_force_vz	2_ground_force_px	2_ground_force_py	2_ground_force_pz	2_ground_torque_x	2_ground_torque_y	2_ground_torque_z
            1.445000	            2.354853	          275.849220	           -8.682419	           -0.309567	            0.006399	           -0.449735	            0.003814	            0.446753	           -0.014062	           -4.677762	          271.754111	           10.920151	           -0.284508	            0.005329	           -0.662004	            0.011194	           -0.650337	           -0.026133
            1.445500	            2.400567	          275.308856	           -8.776563	           -0.309427	            0.006400	           -0.449789	            0.004507	            0.516864	           -0.016477	           -4.772791	          272.122054	           10.921505	           -0.284367	            0.005331	           -0.662442	            0.011626	           -0.662863	           -0.026604
            1.446000	            2.354170	          275.850400	           -8.957554	           -0.309696	            0.006400	           -0.449776	            0.004161	            0.487579	           -0.015833	           -4.728620	          272.858953	           10.877185	           -0.284235	            0.005332	           -0.662632	            0.010427	           -0.601688	           -0.023986
            1.446500	            2.401023	          275.308070	           -8.593139	           -0.309642	            0.006401	           -0.450104	            0.003928	            0.450347	           -0.014057	           -4.492959	          272.490848	           11.063484	           -0.284085	            0.005333	           -0.662744	            0.011347	           -0.688175	           -0.027941
            1.447000	            2.262532	          276.210717	           -8.909925	           -0.309284	            0.006399	           -0.449723	            0.003178	            0.387969	           -0.012515	           -4.398677	          272.307715	           10.875075	           -0.284465	            0.005331	           -0.662490	            0.011417	           -0.706807	           -0.028228
            1.447500	            2.492026	          275.309267	           -8.868502	           -0.309354	            0.006402	           -0.450351	            0.004073	            0.449949	           -0.014494	           -4.401335	          273.044278	           10.877703	           -0.284188	            0.005333	           -0.662815	            0.011215	           -0.695722	           -0.027717
            1.448000	            2.446719	          275.488510	           -8.638336	           -0.309585	            0.006399	           -0.449710	            0.003932	            0.442757	           -0.013883	           -4.353779	          272.859972	           10.970882	           -0.284146	            0.005333	           -0.662698	            0.011897	           -0.745591	           -0.029978
            1.448500	            2.033791	          275.489020	           -8.774880	           -0.309659	            0.006400	           -0.449872	            0.002692	            0.364645	           -0.011615	           -4.495076	          273.044275	           10.783887	           -0.284193	            0.005334	           -0.663091	            0.010971	           -0.666406	           -0.026320
            1.449000	            2.309435	          274.767224	           -8.595231	           -0.309603	            0.006401	           -0.450079	            0.003631	            0.432005	           -0.013514	           -4.305641	          272.492194	           10.875692	           -0.284293	            0.005332	           -0.662470	            0.010946	           -0.692720	           -0.027648
            1.449500	            2.309190	          275.488484	           -8.637995	           -0.309809	            0.006399	           -0.449642	            0.003814	            0.454977	           -0.014266	           -4.541844	          273.043436	           10.971619	           -0.284120	            0.005333	           -0.662608	            0.011231	           -0.675182	           -0.027131
            1.450000	            1.942692	          274.767153	           -8.594321	           -0.310422	            0.006403	           -0.450491	            0.002611	            0.369222	           -0.011549	           -4.682455	          273.043431	           10.830894	           -0.284403	            0.005332	           -0.662815	            0.010940	           -0.637940	           -0.025305
            1.450500	            2.309190	          275.488484	           -8.637995	           -0.309678	            0.006401	           -0.450188	            0.003581	            0.427240	           -0.013396	           -4.493747	          272.675993	           10.782573	           -0.284402	            0.005333	           -0.662929	            0.010851	           -0.658442	           -0.026037
